<svg width="32" height="32" xmlns="http://www.w3.org/2000/svg">
 <title/>

 <g>
  <title>background</title>
  <rect fill="none" id="canvas_background" height="402" width="582" y="-1" x="-1"/>
 </g>
 <g>
  <title>Layer 1</title>
  <path id="svg_1" d="m27,15a11,11 0 0 0 -10,-9.95l0,-3.05l-2,0l0,3.05a11,11 0 0 0 -9.95,9.95l-3.05,0l0,2l3.05,0a11,11 0 0 0 9.95,10l0,3l2,0l0,-3a11,11 0 0 0 10,-10l3,0l0,-2l-3,0zm-11,10a9,9 0 1 1 9,-9a9,9 0 0 1 -9,9z"/>
  <path stroke="null" id="svg_2" d="m16,12a4,4 0 1 0 4,4a4,4 0 0 0 -4,-4zm0,6a2,2 0 1 1 2,-2a2,2 0 0 1 -2,2z"/>
 </g>
</svg>